<svg width="32" height="32" fill="none" xmlns="http://www.w3.org/2000/svg"><path fill-rule="evenodd" clip-rule="evenodd" d="M.46 5a5 5 0 0 1 5-5h21.47a5 5 0 0 1 5 5v21.46a5 5 0 0 1-5 5H5.46a5 5 0 0 1-5-5V5ZM22.1 20.97l2.44-.04s1.29-.08.68-1.09l-.02-.03c-.09-.16-.45-.82-1.8-2.08-.65-.6-.99-.91-1.03-1.25-.04-.47.48-1 1.55-2.42 1.12-1.5 1.58-2.42 1.43-2.82-.13-.37-.96-.27-.96-.27l-2.76.01s-.2-.02-.36.07c-.14.09-.24.3-.24.3S20.58 12.5 20 13.5c-1.23 2.09-1.72 2.2-1.92 2.07-.39-.25-.37-.93-.36-1.53l.01-.33c0-.47.02-.87.03-1.22.05-1.16.07-1.7-.63-1.87-.3-.07-.52-.12-1.28-.13-.99 0-1.82 0-2.3.24-.3.15-.55.5-.4.51.18.03.6.11.81.41.29.39.28 1.26.28 1.26s.16 2.38-.38 2.67c-.38.2-.89-.2-1.98-2.1-.56-.98-.99-2.05-.99-2.05s-.08-.2-.23-.3c-.17-.14-.42-.18-.42-.18l-2.62.01s-.4 0-.54.18c-.13.15 0 .45 0 .45s2.05 4.79 4.37 7.2c2.13 2.23 4.55 2.03 4.55 2.03h1.1s.33.02.5-.16c.16-.17.15-.43.15-.43s-.02-1.47.66-1.7c.41-.12.89.43 1.4 1.02.34.39.7.8 1.06 1.04.69.48 1.22.38 1.22.38Z" fill="#505050"/></svg>